<svg xmlns="http://www.w3.org/2000/svg" xmlns:xlink="http://www.w3.org/1999/xlink" id="svg" version="1.1" preserveAspectRatio="none" viewBox="58.33 151.77 283.33 96.96"><g id="svgg"><path id="path0" d="M166.365 152.075 C 161.061 154.891,165.478 167.454,172.956 170.815 L 174.399 171.464 175.863 170.687 C 176.668 170.260,178.541 168.646,180.025 167.100 C 188.519 158.253,184.875 146.947,175.926 154.382 L 174.353 155.690 172.466 154.154 C 169.801 151.983,167.814 151.306,166.365 152.075 M192.032 152.088 C 188.101 154.109,189.030 161.738,193.841 166.934 C 198.954 172.456,200.651 172.473,205.746 167.052 C 214.109 158.155,210.431 147.036,201.564 154.407 L 199.962 155.739 198.323 154.357 C 195.597 152.058,193.536 151.315,192.032 152.088 M217.677 152.093 C 213.685 154.113,214.620 161.777,219.487 166.937 C 224.742 172.508,226.258 172.508,231.512 166.938 C 239.736 158.221,235.801 146.802,227.187 154.385 C 225.535 155.839,225.193 155.817,223.667 154.153 C 221.999 152.336,219.140 151.353,217.677 152.093 M233.537 153.588 C 235.965 155.195,235.038 160.651,231.585 165.079 C 229.992 167.122,226.706 170.000,225.967 170.000 C 225.799 170.000,225.667 167.153,225.667 163.562 L 225.667 157.125 226.583 156.263 C 229.041 153.952,232.231 152.725,233.537 153.588 M246.333 193.667 L 246.333 197.000 294.000 197.000 L 341.667 197.000 341.667 193.667 L 341.667 190.333 294.000 190.333 L 246.333 190.333 246.333 193.667 M58.333 194.333 L 58.333 197.667 106.000 197.667 L 153.667 197.667 153.667 194.333 L 153.667 191.000 106.000 191.000 L 58.333 191.000 58.333 194.333 M293.220 213.583 C 292.963 214.006,292.919 217.266,292.960 232.924 L 293.000 248.015 299.250 247.924 L 305.500 247.833 305.500 245.833 L 305.500 243.833 301.917 243.739 L 298.333 243.644 298.311 240.239 C 298.214 225.450,297.912 214.129,297.604 213.758 C 297.224 213.300,293.483 213.152,293.220 213.583 M218.546 214.167 C 218.440 214.443,218.350 222.168,218.346 231.334 L 218.338 248.000 220.799 248.000 L 223.259 248.000 223.461 246.917 C 223.572 246.321,223.657 243.583,223.648 240.833 C 223.640 238.083,223.641 235.046,223.650 234.083 L 223.667 232.333 225.833 232.333 L 228.000 232.333 228.022 238.083 C 228.034 241.246,228.072 244.733,228.105 245.833 L 228.167 247.833 230.470 247.933 C 232.089 248.003,232.854 247.904,233.045 247.600 C 233.195 247.362,233.317 239.861,233.318 230.933 C 233.318 212.234,233.560 213.574,230.211 213.735 L 228.167 213.833 228.077 220.750 L 227.986 227.667 225.827 227.667 C 224.326 227.667,223.664 227.540,223.657 227.250 C 223.652 227.021,223.643 224.208,223.638 221.000 C 223.624 213.234,223.780 213.667,221.000 213.667 C 219.296 213.667,218.691 213.790,218.546 214.167 M245.924 213.854 C 245.467 214.311,245.512 247.276,245.971 247.758 C 246.106 247.900,248.830 247.975,252.025 247.925 L 257.833 247.833 257.939 246.360 C 258.147 243.450,258.167 243.465,254.179 243.612 L 250.667 243.742 250.661 240.454 C 250.657 238.646,250.620 231.917,250.577 225.500 L 250.500 213.833 248.318 213.737 C 247.119 213.684,246.041 213.737,245.924 213.854 M95.889 214.222 C 95.603 214.508,95.602 235.876,95.887 242.750 L 96.104 248.000 100.899 248.000 C 110.302 248.000,110.737 247.206,110.593 230.295 C 110.479 216.988,110.294 216.216,106.833 214.627 C 105.481 214.006,96.439 213.672,95.889 214.222 M113.863 214.543 C 113.597 215.236,113.683 243.837,113.959 246.500 L 114.167 248.500 116.500 248.378 C 119.421 248.226,119.196 248.875,119.000 241.168 C 118.808 233.603,118.912 233.284,120.279 237.249 C 120.832 238.854,121.811 241.696,122.455 243.566 C 124.178 248.573,123.970 248.334,126.595 248.328 C 130.311 248.320,130.307 248.792,126.659 239.738 L 124.274 233.821 125.935 232.160 C 129.894 228.201,129.305 216.863,125.026 214.680 C 123.208 213.753,114.209 213.642,113.863 214.543 M134.707 216.083 C 134.509 217.229,134.045 220.342,133.678 223.000 C 133.310 225.658,132.775 229.132,132.490 230.719 C 132.204 232.307,131.907 234.407,131.830 235.386 C 131.753 236.365,131.462 238.329,131.183 239.750 C 130.905 241.171,130.601 243.246,130.508 244.361 C 130.415 245.476,130.262 246.513,130.168 246.664 C 129.617 247.555,130.456 248.000,132.687 248.000 L 134.970 248.000 135.144 246.917 C 135.240 246.321,135.481 244.633,135.680 243.167 C 136.228 239.112,136.066 239.333,138.496 239.333 C 140.927 239.333,140.690 238.947,141.349 243.986 C 141.864 247.928,141.921 248.000,144.492 248.000 C 147.054 248.000,147.054 247.999,146.660 245.304 C 146.131 241.687,144.397 228.861,143.465 221.667 C 142.397 213.426,142.769 214.000,138.493 214.000 L 135.068 214.000 134.707 216.083 M167.146 214.434 C 167.054 214.672,167.022 222.360,167.073 231.517 L 167.167 248.167 169.667 248.167 L 172.167 248.167 172.241 243.333 C 172.283 240.675,172.329 237.450,172.344 236.167 L 172.372 233.833 173.317 236.234 C 173.836 237.554,174.658 240.019,175.144 241.711 C 175.629 243.403,176.229 245.248,176.477 245.811 C 176.726 246.373,177.015 247.096,177.121 247.417 C 177.281 247.904,177.728 248.000,179.833 248.000 C 182.886 248.000,183.039 247.785,181.897 245.104 C 181.125 243.290,179.859 240.021,178.221 235.612 L 177.520 233.724 178.718 232.612 C 182.681 228.932,182.460 217.545,178.374 214.954 C 176.649 213.860,167.528 213.438,167.146 214.434 M184.534 214.279 C 184.148 214.903,184.570 243.461,184.981 244.500 C 186.960 249.508,195.014 250.254,198.162 245.720 L 199.167 244.273 199.167 231.220 C 199.167 224.041,199.116 217.229,199.054 216.083 L 198.941 214.000 196.823 214.000 C 194.124 214.000,194.415 212.393,194.138 228.816 C 193.874 244.422,193.884 244.351,191.917 244.323 C 189.632 244.290,189.615 244.173,189.552 227.803 L 189.500 214.167 187.112 214.069 C 185.798 214.016,184.638 214.110,184.534 214.279 M201.228 214.216 C 200.906 214.539,200.953 217.744,201.288 218.272 C 201.496 218.599,202.078 218.653,203.573 218.484 C 204.800 218.345,205.660 218.386,205.785 218.589 C 205.993 218.925,206.353 235.013,206.340 243.381 C 206.332 248.577,206.204 248.372,209.289 248.093 L 211.333 247.907 211.333 233.120 L 211.333 218.333 213.660 218.333 C 216.281 218.333,216.489 218.105,216.273 215.468 L 216.167 214.167 208.812 214.077 C 204.767 214.028,201.354 214.090,201.228 214.216 M260.111 214.525 C 259.997 214.822,260.004 216.969,260.127 219.296 C 260.250 221.623,260.347 228.940,260.342 235.556 C 260.336 244.967,260.427 247.663,260.763 247.942 C 261.055 248.184,263.047 248.224,267.013 248.066 L 272.833 247.833 272.833 245.833 L 272.833 243.833 269.250 243.739 L 265.667 243.644 265.642 242.239 C 265.629 241.466,265.570 238.996,265.512 236.750 L 265.405 232.667 268.167 232.667 C 271.193 232.667,271.333 232.572,271.333 230.536 C 271.333 228.728,270.803 228.366,268.000 228.260 L 265.500 228.167 265.408 223.095 L 265.316 218.023 268.908 217.928 L 272.500 217.833 272.500 216.000 L 272.500 214.167 266.409 214.076 C 261.049 213.996,260.293 214.050,260.111 214.525 M278.545 215.083 C 278.438 215.679,277.967 218.867,277.500 222.167 C 277.033 225.467,276.349 229.988,275.980 232.213 C 275.611 234.439,275.344 236.389,275.387 236.547 C 275.430 236.704,275.215 238.183,274.908 239.833 C 274.601 241.483,274.261 244.003,274.152 245.432 L 273.953 248.030 276.380 247.932 L 278.807 247.833 279.219 244.542 C 279.926 238.899,279.695 239.288,282.277 239.402 L 284.495 239.500 284.915 243.000 C 285.513 247.985,285.523 248.000,288.140 248.000 C 290.930 248.000,290.829 248.675,289.488 238.958 C 288.847 234.306,288.025 228.100,287.662 225.167 C 286.954 219.436,286.383 215.520,286.119 214.583 C 285.976 214.074,285.498 214.000,282.348 214.000 L 278.741 214.000 278.545 215.083 M104.655 219.228 C 105.343 220.103,105.356 220.360,105.263 231.193 C 105.153 243.877,105.200 243.667,102.448 243.667 L 101.000 243.667 100.947 237.083 C 100.919 233.463,100.907 230.281,100.922 230.014 C 100.937 229.746,100.805 229.259,100.629 228.931 C 100.454 228.602,100.428 228.333,100.572 228.333 C 100.857 228.333,100.875 228.045,100.949 222.250 L 101.000 218.333 102.476 218.333 C 103.680 218.333,104.081 218.498,104.655 219.228 M174.717 218.693 C 177.684 220.282,176.797 228.940,173.612 229.479 C 172.121 229.732,172.124 229.742,171.806 223.451 C 171.540 218.180,172.087 217.286,174.717 218.693 M122.171 219.218 C 123.681 220.728,123.936 227.923,122.513 228.856 C 119.300 230.961,118.676 229.998,118.670 222.917 L 118.667 218.667 120.143 218.667 C 121.072 218.667,121.823 218.871,122.171 219.218 M283.143 227.333 C 283.420 229.808,283.747 232.546,283.869 233.417 L 284.091 235.000 282.379 235.000 C 281.228 235.000,280.669 234.863,280.673 234.583 C 280.676 234.354,280.891 232.667,281.151 230.833 C 281.411 229.000,281.597 227.275,281.565 227.000 C 281.482 226.289,282.447 221.729,282.553 222.333 C 282.601 222.608,282.867 224.858,283.143 227.333 M140.169 233.417 L 140.409 235.000 138.705 235.000 C 136.755 235.000,136.764 235.024,137.321 231.500 C 137.495 230.400,137.705 228.675,137.788 227.667 C 138.249 222.085,138.734 221.878,139.349 227.000 C 139.668 229.658,140.037 232.546,140.169 233.417 M149.569 243.542 C 149.439 243.672,149.333 244.728,149.333 245.889 L 149.333 248.000 151.827 248.000 C 154.660 248.000,154.810 247.837,154.605 244.973 L 154.500 243.500 152.152 243.403 C 150.861 243.350,149.698 243.413,149.569 243.542 " stroke="none" fill="#000000" fill-rule="evenodd"/></g></svg>